<?xml version="1.0" encoding="UTF-8" ?>
<svg version="1.1" width="4096" height="2304" xmlns="http://www.w3.org/2000/svg" shape-rendering="crispEdges">
<rect x="448" y="960" width="96" height="400" fill="#D5C6E0" />
<rect x="912" y="960" width="112" height="64" fill="#D5C6E0" />
<rect x="1200" y="960" width="272" height="64" fill="#D5C6E0" />
<rect x="1616" y="960" width="240" height="64" fill="#D5C6E0" />
<rect x="2064" y="960" width="112" height="64" fill="#D5C6E0" />
<rect x="2352" y="960" width="272" height="64" fill="#D5C6E0" />
<rect x="2768" y="960" width="224" height="64" fill="#D5C6E0" />
<rect x="3168" y="960" width="80" height="32" fill="#D5C6E0" />
<rect x="3424" y="960" width="80" height="32" fill="#D5C6E0" />
<rect x="3568" y="960" width="80" height="272" fill="#D5C6E0" />
<rect x="1472" y="976" width="32" height="192" fill="#D5C6E0" />
<rect x="1856" y="976" width="48" height="96" fill="#D5C6E0" />
<rect x="2624" y="976" width="32" height="192" fill="#D5C6E0" />
<rect x="2992" y="976" width="48" height="80" fill="#D5C6E0" />
<rect x="3248" y="976" width="16" height="144" fill="#D5C6E0" />
<rect x="3408" y="976" width="16" height="160" fill="#D5C6E0" />
<rect x="1504" y="992" width="16" height="176" fill="#D5C6E0" />
<rect x="1904" y="992" width="16" height="192" fill="#D5C6E0" />
<rect x="2656" y="992" width="16" height="176" fill="#D5C6E0" />
<rect x="3040" y="992" width="16" height="336" fill="#D5C6E0" />
<rect x="3184" y="992" width="64" height="16" fill="#D5C6E0" />
<rect x="3424" y="992" width="64" height="32" fill="#D5C6E0" />
<rect x="896" y="1008" width="16" height="256" fill="#D5C6E0" />
<rect x="1024" y="1008" width="16" height="256" fill="#D5C6E0" />
<rect x="1520" y="1008" width="16" height="144" fill="#D5C6E0" />
<rect x="1920" y="1008" width="16" height="144" fill="#D5C6E0" />
<rect x="2048" y="1008" width="16" height="256" fill="#D5C6E0" />
<rect x="2176" y="1008" width="16" height="256" fill="#D5C6E0" />
<rect x="2672" y="1008" width="16" height="144" fill="#D5C6E0" />
<rect x="3056" y="1008" width="16" height="304" fill="#D5C6E0" />
<rect x="3168" y="1008" width="32" height="32" fill="#000000" />
<rect x="3200" y="1008" width="48" height="32" fill="#D5C6E0" />
<rect x="3264" y="1008" width="16" height="144" fill="#D5C6E0" />
<rect x="3392" y="1008" width="16" height="160" fill="#D5C6E0" />
<rect x="3488" y="1008" width="16" height="32" fill="#000000" />
<rect x="912" y="1024" width="48" height="48" fill="#D5C6E0" />
<rect x="960" y="1024" width="16" height="48" fill="#000000" />
<rect x="976" y="1024" width="48" height="64" fill="#D5C6E0" />
<rect x="1200" y="1024" width="96" height="336" fill="#D5C6E0" />
<rect x="1296" y="1024" width="144" height="48" fill="#000000" />
<rect x="1440" y="1024" width="32" height="16" fill="#D5C6E0" />
<rect x="1536" y="1024" width="16" height="96" fill="#D5C6E0" />
<rect x="1616" y="1024" width="96" height="336" fill="#D5C6E0" />
<rect x="1712" y="1024" width="128" height="48" fill="#000000" />
<rect x="1840" y="1024" width="16" height="16" fill="#D5C6E0" />
<rect x="2064" y="1024" width="48" height="48" fill="#D5C6E0" />
<rect x="2112" y="1024" width="16" height="48" fill="#000000" />
<rect x="2128" y="1024" width="48" height="64" fill="#D5C6E0" />
<rect x="2352" y="1024" width="96" height="336" fill="#D5C6E0" />
<rect x="2448" y="1024" width="144" height="48" fill="#000000" />
<rect x="2592" y="1024" width="32" height="16" fill="#D5C6E0" />
<rect x="2688" y="1024" width="16" height="96" fill="#D5C6E0" />
<rect x="2768" y="1024" width="96" height="336" fill="#D5C6E0" />
<rect x="2864" y="1024" width="96" height="48" fill="#000000" />
<rect x="2960" y="1024" width="32" height="16" fill="#D5C6E0" />
<rect x="3072" y="1024" width="16" height="272" fill="#D5C6E0" />
<rect x="3424" y="1024" width="48" height="16" fill="#D5C6E0" />
<rect x="3472" y="1024" width="16" height="48" fill="#000000" />
<rect x="1440" y="1040" width="16" height="48" fill="#000000" />
<rect x="1456" y="1040" width="16" height="16" fill="#D5C6E0" />
<rect x="1840" y="1040" width="16" height="48" fill="#000000" />
<rect x="2592" y="1040" width="16" height="48" fill="#000000" />
<rect x="2608" y="1040" width="16" height="16" fill="#D5C6E0" />
<rect x="2960" y="1040" width="32" height="48" fill="#000000" />
<rect x="3088" y="1040" width="16" height="240" fill="#D5C6E0" />
<rect x="3184" y="1040" width="32" height="16" fill="#000000" />
<rect x="3216" y="1040" width="32" height="32" fill="#D5C6E0" />
<rect x="3280" y="1040" width="16" height="144" fill="#D5C6E0" />
<rect x="3376" y="1040" width="16" height="160" fill="#D5C6E0" />
<rect x="3424" y="1040" width="32" height="32" fill="#D5C6E0" />
<rect x="3456" y="1040" width="16" height="48" fill="#000000" />
<rect x="880" y="1056" width="16" height="240" fill="#D5C6E0" />
<rect x="1040" y="1056" width="16" height="240" fill="#D5C6E0" />
<rect x="1456" y="1056" width="16" height="48" fill="#000000" />
<rect x="1936" y="1056" width="16" height="64" fill="#D5C6E0" />
<rect x="2032" y="1056" width="16" height="240" fill="#D5C6E0" />
<rect x="2192" y="1056" width="16" height="240" fill="#D5C6E0" />
<rect x="2608" y="1056" width="16" height="48" fill="#000000" />
<rect x="2992" y="1056" width="16" height="48" fill="#000000" />
<rect x="3008" y="1056" width="32" height="16" fill="#D5C6E0" />
<rect x="3200" y="1056" width="16" height="32" fill="#000000" />
<rect x="912" y="1072" width="32" height="64" fill="#D5C6E0" />
<rect x="944" y="1072" width="16" height="48" fill="#000000" />
<rect x="1856" y="1072" width="16" height="32" fill="#000000" />
<rect x="1872" y="1072" width="32" height="112" fill="#D5C6E0" />
<rect x="2064" y="1072" width="32" height="64" fill="#D5C6E0" />
<rect x="2096" y="1072" width="16" height="48" fill="#000000" />
<rect x="3008" y="1072" width="16" height="48" fill="#000000" />
<rect x="3024" y="1072" width="16" height="16" fill="#D5C6E0" />
<rect x="3104" y="1072" width="16" height="176" fill="#D5C6E0" />
<rect x="3216" y="1072" width="16" height="48" fill="#000000" />
<rect x="3232" y="1072" width="16" height="32" fill="#D5C6E0" />
<rect x="3296" y="1072" width="16" height="288" fill="#D5C6E0" />
<rect x="3360" y="1072" width="16" height="288" fill="#D5C6E0" />
<rect x="3424" y="1072" width="16" height="32" fill="#D5C6E0" />
<rect x="3440" y="1072" width="16" height="48" fill="#000000" />
<rect x="976" y="1088" width="16" height="48" fill="#000000" />
<rect x="992" y="1088" width="32" height="48" fill="#D5C6E0" />
<rect x="2128" y="1088" width="16" height="48" fill="#000000" />
<rect x="2144" y="1088" width="32" height="48" fill="#D5C6E0" />
<rect x="3024" y="1088" width="16" height="48" fill="#000000" />
<rect x="864" y="1104" width="16" height="240" fill="#D5C6E0" />
<rect x="1056" y="1104" width="16" height="240" fill="#D5C6E0" />
<rect x="1456" y="1104" width="16" height="224" fill="#D5C6E0" />
<rect x="1856" y="1104" width="16" height="96" fill="#D5C6E0" />
<rect x="2016" y="1104" width="16" height="240" fill="#D5C6E0" />
<rect x="2208" y="1104" width="16" height="240" fill="#D5C6E0" />
<rect x="2608" y="1104" width="16" height="224" fill="#D5C6E0" />
<rect x="3232" y="1104" width="16" height="48" fill="#000000" />
<rect x="3312" y="1104" width="16" height="256" fill="#D5C6E0" />
<rect x="3344" y="1104" width="16" height="256" fill="#D5C6E0" />
<rect x="3424" y="1104" width="16" height="48" fill="#000000" />
<rect x="1440" y="1120" width="16" height="192" fill="#D5C6E0" />
<rect x="1536" y="1120" width="16" height="48" fill="#000000" />
<rect x="1936" y="1120" width="16" height="48" fill="#000000" />
<rect x="2592" y="1120" width="16" height="192" fill="#D5C6E0" />
<rect x="2688" y="1120" width="16" height="48" fill="#000000" />
<rect x="3248" y="1120" width="16" height="48" fill="#000000" />
<rect x="848" y="1136" width="16" height="224" fill="#D5C6E0" />
<rect x="912" y="1136" width="16" height="48" fill="#D5C6E0" />
<rect x="928" y="1136" width="16" height="48" fill="#000000" />
<rect x="992" y="1136" width="16" height="48" fill="#000000" />
<rect x="1008" y="1136" width="16" height="48" fill="#D5C6E0" />
<rect x="1296" y="1136" width="144" height="64" fill="#D5C6E0" />
<rect x="1840" y="1136" width="16" height="80" fill="#D5C6E0" />
<rect x="2000" y="1136" width="16" height="224" fill="#D5C6E0" />
<rect x="2064" y="1136" width="16" height="48" fill="#D5C6E0" />
<rect x="2080" y="1136" width="16" height="48" fill="#000000" />
<rect x="2144" y="1136" width="16" height="48" fill="#000000" />
<rect x="2160" y="1136" width="16" height="48" fill="#D5C6E0" />
<rect x="2448" y="1136" width="144" height="64" fill="#D5C6E0" />
<rect x="3328" y="1136" width="16" height="224" fill="#D5C6E0" />
<rect x="3408" y="1136" width="16" height="48" fill="#000000" />
<rect x="1072" y="1152" width="16" height="208" fill="#D5C6E0" />
<rect x="1520" y="1152" width="16" height="48" fill="#000000" />
<rect x="1712" y="1152" width="128" height="64" fill="#D5C6E0" />
<rect x="1920" y="1152" width="16" height="48" fill="#000000" />
<rect x="2224" y="1152" width="16" height="208" fill="#D5C6E0" />
<rect x="2672" y="1152" width="16" height="48" fill="#000000" />
<rect x="3264" y="1152" width="16" height="48" fill="#000000" />
<rect x="1472" y="1168" width="16" height="16" fill="#D5C6E0" />
<rect x="1488" y="1168" width="32" height="48" fill="#000000" />
<rect x="2624" y="1168" width="16" height="16" fill="#D5C6E0" />
<rect x="2640" y="1168" width="32" height="48" fill="#000000" />
<rect x="3392" y="1168" width="16" height="48" fill="#000000" />
<rect x="832" y="1184" width="16" height="176" fill="#D5C6E0" />
<rect x="912" y="1184" width="16" height="16" fill="#000000" />
<rect x="1008" y="1184" width="16" height="16" fill="#000000" />
<rect x="1088" y="1184" width="16" height="176" fill="#D5C6E0" />
<rect x="1472" y="1184" width="16" height="32" fill="#000000" />
<rect x="1872" y="1184" width="16" height="16" fill="#D5C6E0" />
<rect x="1888" y="1184" width="32" height="48" fill="#000000" />
<rect x="1984" y="1184" width="16" height="176" fill="#D5C6E0" />
<rect x="2064" y="1184" width="16" height="16" fill="#000000" />
<rect x="2160" y="1184" width="16" height="16" fill="#000000" />
<rect x="2240" y="1184" width="16" height="176" fill="#D5C6E0" />
<rect x="2624" y="1184" width="16" height="32" fill="#000000" />
<rect x="3280" y="1184" width="16" height="48" fill="#000000" />
<rect x="912" y="1200" width="112" height="64" fill="#D5C6E0" />
<rect x="1296" y="1200" width="96" height="48" fill="#000000" />
<rect x="1392" y="1200" width="48" height="16" fill="#D5C6E0" />
<rect x="1856" y="1200" width="32" height="48" fill="#000000" />
<rect x="2064" y="1200" width="112" height="64" fill="#D5C6E0" />
<rect x="2448" y="1200" width="96" height="48" fill="#000000" />
<rect x="2544" y="1200" width="48" height="16" fill="#D5C6E0" />
<rect x="3376" y="1200" width="16" height="48" fill="#000000" />
<rect x="1392" y="1216" width="16" height="48" fill="#000000" />
<rect x="1408" y="1216" width="32" height="32" fill="#D5C6E0" />
<rect x="1472" y="1216" width="16" height="144" fill="#D5C6E0" />
<rect x="1712" y="1216" width="144" height="48" fill="#000000" />
<rect x="2544" y="1216" width="16" height="48" fill="#000000" />
<rect x="2560" y="1216" width="32" height="32" fill="#D5C6E0" />
<rect x="2624" y="1216" width="16" height="144" fill="#D5C6E0" />
<rect x="816" y="1232" width="16" height="128" fill="#D5C6E0" />
<rect x="1104" y="1232" width="16" height="128" fill="#D5C6E0" />
<rect x="1488" y="1232" width="16" height="128" fill="#D5C6E0" />
<rect x="1968" y="1232" width="16" height="128" fill="#D5C6E0" />
<rect x="2256" y="1232" width="16" height="128" fill="#D5C6E0" />
<rect x="2640" y="1232" width="16" height="128" fill="#D5C6E0" />
<rect x="3024" y="1232" width="16" height="112" fill="#D5C6E0" />
<rect x="3568" y="1232" width="80" height="48" fill="#000000" />
<rect x="1408" y="1248" width="16" height="48" fill="#000000" />
<rect x="1424" y="1248" width="16" height="32" fill="#D5C6E0" />
<rect x="2560" y="1248" width="16" height="48" fill="#000000" />
<rect x="2576" y="1248" width="16" height="32" fill="#D5C6E0" />
<rect x="3008" y="1248" width="16" height="96" fill="#D5C6E0" />
<rect x="3104" y="1248" width="16" height="48" fill="#000000" />
<rect x="896" y="1264" width="144" height="48" fill="#000000" />
<rect x="1504" y="1264" width="16" height="96" fill="#D5C6E0" />
<rect x="2048" y="1264" width="144" height="48" fill="#000000" />
<rect x="2656" y="1264" width="16" height="96" fill="#D5C6E0" />
<rect x="2992" y="1264" width="16" height="80" fill="#D5C6E0" />
<rect x="800" y="1280" width="16" height="80" fill="#D5C6E0" />
<rect x="1120" y="1280" width="16" height="80" fill="#D5C6E0" />
<rect x="1424" y="1280" width="16" height="48" fill="#000000" />
<rect x="1520" y="1280" width="16" height="80" fill="#D5C6E0" />
<rect x="1952" y="1280" width="16" height="80" fill="#D5C6E0" />
<rect x="2272" y="1280" width="16" height="80" fill="#D5C6E0" />
<rect x="2576" y="1280" width="16" height="48" fill="#000000" />
<rect x="2672" y="1280" width="16" height="80" fill="#D5C6E0" />
<rect x="2976" y="1280" width="16" height="80" fill="#D5C6E0" />
<rect x="3088" y="1280" width="16" height="48" fill="#000000" />
<rect x="3568" y="1280" width="80" height="80" fill="#D5C6E0" />
<rect x="544" y="1296" width="208" height="64" fill="#D5C6E0" />
<rect x="880" y="1296" width="16" height="48" fill="#000000" />
<rect x="1040" y="1296" width="16" height="48" fill="#000000" />
<rect x="2032" y="1296" width="16" height="48" fill="#000000" />
<rect x="2192" y="1296" width="16" height="48" fill="#000000" />
<rect x="2864" y="1296" width="112" height="64" fill="#D5C6E0" />
<rect x="3072" y="1296" width="16" height="48" fill="#000000" />
<rect x="1440" y="1312" width="16" height="48" fill="#000000" />
<rect x="1536" y="1312" width="16" height="48" fill="#D5C6E0" />
<rect x="2592" y="1312" width="16" height="48" fill="#000000" />
<rect x="2688" y="1312" width="16" height="48" fill="#D5C6E0" />
<rect x="3056" y="1312" width="16" height="48" fill="#000000" />
<rect x="784" y="1328" width="16" height="32" fill="#D5C6E0" />
<rect x="1136" y="1328" width="16" height="32" fill="#D5C6E0" />
<rect x="1456" y="1328" width="16" height="48" fill="#000000" />
<rect x="1936" y="1328" width="16" height="32" fill="#D5C6E0" />
<rect x="2288" y="1328" width="16" height="32" fill="#D5C6E0" />
<rect x="2608" y="1328" width="16" height="48" fill="#000000" />
<rect x="3040" y="1328" width="16" height="48" fill="#000000" />
<rect x="864" y="1344" width="16" height="48" fill="#000000" />
<rect x="1056" y="1344" width="16" height="48" fill="#000000" />
<rect x="1552" y="1344" width="16" height="16" fill="#D5C6E0" />
<rect x="2016" y="1344" width="16" height="48" fill="#000000" />
<rect x="2208" y="1344" width="16" height="48" fill="#000000" />
<rect x="2704" y="1344" width="16" height="16" fill="#D5C6E0" />
<rect x="2992" y="1344" width="48" height="48" fill="#000000" />
<rect x="448" y="1360" width="304" height="48" fill="#000000" />
<rect x="800" y="1360" width="64" height="48" fill="#000000" />
<rect x="1072" y="1360" width="64" height="48" fill="#000000" />
<rect x="1200" y="1360" width="96" height="48" fill="#000000" />
<rect x="1472" y="1360" width="80" height="48" fill="#000000" />
<rect x="1616" y="1360" width="96" height="48" fill="#000000" />
<rect x="1952" y="1360" width="64" height="48" fill="#000000" />
<rect x="2224" y="1360" width="64" height="48" fill="#000000" />
<rect x="2352" y="1360" width="96" height="48" fill="#000000" />
<rect x="2624" y="1360" width="80" height="48" fill="#000000" />
<rect x="2768" y="1360" width="224" height="48" fill="#000000" />
<rect x="3296" y="1360" width="80" height="48" fill="#000000" />
<rect x="3568" y="1360" width="80" height="48" fill="#000000" />
<rect x="784" y="1376" width="16" height="32" fill="#000000" />
<rect x="1136" y="1376" width="16" height="32" fill="#000000" />
<rect x="1936" y="1376" width="16" height="32" fill="#000000" />
<rect x="2288" y="1376" width="16" height="32" fill="#000000" />
<rect x="1552" y="1392" width="16" height="16" fill="#000000" />
<rect x="2704" y="1392" width="16" height="16" fill="#000000" />
</svg>